<?xml version="1.0" encoding="UTF-8"?>
<svg id="Layer_1" data-name="Layer 1" xmlns="http://www.w3.org/2000/svg" viewBox="0 0 270.68 306.82">
  <defs>
    <style>
      .cls-1 {
        fill: #f4efe5;
      }

      .cls-2 {
        fill: #b32c2c;
      }
    </style>
  </defs>
  <rect class="cls-1" x="59.87" y="72.29" width="153.04" height="101.69"/>
  <path class="cls-1" d="M135.34,0C60.71,0,0,60.72,0,135.34c0,31.85,21.62,69.45,64.27,111.74,30.14,29.9,59.88,51.32,61.14,52.22l10.5,7.53,10.48-7.58c1.24-.9,30.72-22.32,60.61-52.23,42.25-42.29,63.68-79.86,63.68-111.69C270.68,60.72,209.97,0,135.34,0ZM178.05,151.41v-5.04h-6.09v-10.11h-6.09v-10.11h-6.08v-10.1h-6.09v-10.12h-6.08v-10.1h-3.04v55.58h4.56v5.04h-18.25v-5.04h4.56v-59.96c-1.19.97-2.21,2.59-2.92,5.25l-9.23,34.89c-5.27,19.95-15.56,24.86-31.19,24.86-12.04,0-21.36-4.57-21.36-17.57,0-2.73.44-5.9,1.32-9.41l8.17-32.42c.26-.97.36-1.85.36-2.64,0-4.31-3.26-3.64-5.37-3.64h-.61v-5.05h30.41v5.05c-4.76.07-9.68-.48-11.26,5.75l-8.88,34.09c-.7,2.73-1.05,5.1-1.05,7.13,0,7.37,4.39,10.54,12.3,10.54,11.69,0,17.4-8,20.65-20.65l8.08-31.28c.18-.7.27-1.32.27-1.84,0-4.05-4.49-4.31-6.77-4.57l.79-4.22h29.96v5.05h4.56v5.05h6.09v10.1h6.08v10.11h6.09v10.11h6.09v10.11h6.09v10.11h2.08v-55.6h-4.56v-5.03h18.25v5.03h-4.56v60.65h4.56v5.04h-18.25v-5.04h-3.61Z"/>
  <path class="cls-2" d="M135.61,285.07c-.3-.22-29.85-21.49-59.01-50.42-26.96-26.74-59.09-65.67-59.09-99.32,0-64.97,52.86-117.83,117.83-117.83s117.83,52.86,117.83,117.83c0,33.64-31.85,72.58-58.56,99.32-28.9,28.93-58.19,50.21-58.48,50.42l-.26.19-.26-.19ZM76.87,90.29c1.95,0,4.19.47,4.19,4.13,0,.91-.13,1.83-.38,2.76l-8.17,32.41c-.87,3.46-1.3,6.59-1.3,9.3,0,14.15,11.37,17.12,20.91,17.12,14.57,0,25.38-4.17,30.76-24.53l9.23-34.89c.68-2.57,1.69-4.36,3.07-5.48l.73-.59v61.35h-4.56v4.14h17.35v-4.14h-4.56v-56.48h3.94v10.1h6.08v10.12h6.09v10.1h6.08v10.11h6.09v10.11h6.09v5.04h3.61v5.04h17.35v-4.14h-4.56v-61.55h4.56v-4.13h-17.35v4.13h4.56v56.5h-2.98v-10.11h-6.09v-10.11h-6.09v-10.11h-6.09v-10.11h-6.08v-10.1h-6.09v-5.05h-4.56v-5.04h-29.14l-.63,3.37c2.4.26,6.69.79,6.69,4.96,0,.56-.1,1.22-.29,1.95l-8.08,31.28c-3.73,14.51-10.24,21-21.09,21-8.46,0-12.75-3.7-12.75-10.99,0-2.05.36-4.49,1.07-7.24l8.88-34.09c1.53-6.04,6.08-6.06,10.48-6.08h.76v-4.17h-29.51v4.16h.16c.23,0,.48,0,.75-.02.29,0,.58-.02.88-.02h-.02,0Z"/>
</svg>